<svg width="70" height="34" viewBox="0 0 70 34" fill="none" xmlns="http://www.w3.org/2000/svg">
<g clip-path="url(#clip0_1022_5323)">
<path d="M25.6587 0.569489C25.1302 0.721981 23.7158 1.65219 21.4 3.39061C18.9908 5.19003 18.8043 5.26627 20.2809 3.89383C21.5709 2.68914 21.7419 2.29266 21.1979 1.65219C20.8715 1.24046 20.0944 1.17946 19.5815 1.51494C18.882 1.97242 14.9186 5.81524 13.5664 7.35542C11.6857 9.49032 10.8775 10.6798 10.7843 11.4727C10.7221 12.037 10.7687 12.1437 11.1573 12.4487C11.95 13.0587 12.7893 12.6927 15.96 10.3748C16.877 9.70382 16.7216 9.9173 15.0119 11.7777C13.1778 13.7754 10.7998 16.5507 10.2713 17.3285C9.68072 18.1977 9.66518 18.8839 10.2247 19.3109C11.2816 20.1191 12.9136 19.3414 16.4107 16.3373C18.2137 14.7818 18.4158 14.7056 17.2811 15.956C14.0482 19.5396 13.1312 20.5918 12.2919 21.6593C11.3283 22.925 11.1262 23.3672 11.2816 23.9772C11.406 24.4499 12.1831 24.8616 12.7582 24.7396C13.5042 24.5871 16.0533 22.559 21.6797 17.6639C22.0838 17.298 22.4102 17.054 22.4102 17.115C22.4102 17.1607 21.1202 18.5637 19.5504 20.2106C16.4418 23.4739 14.4524 25.7003 14.0016 26.417C13.5664 27.088 13.613 27.7742 14.1104 28.1555C14.6078 28.5367 14.9653 28.5519 15.6181 28.2317C16.5973 27.7437 20.0167 25.0141 24.2754 21.339C25.3478 20.4241 26.2493 19.6921 26.2804 19.7226C26.3115 19.7531 25.8607 20.2868 25.2701 20.8968C24.6795 21.4915 23.234 23.0164 22.0683 24.2821C17.4676 29.2534 16.877 30.2141 17.8407 31.1748C18.8043 32.1203 19.6747 31.5103 28.1611 23.9924C33.399 19.3566 33.3834 19.3566 33.1348 19.7379C33.0104 19.9056 31.6426 21.4153 30.1039 23.0774C21.944 31.861 21.8352 32.0135 22.5657 32.9437C22.8144 33.2487 23.032 33.3555 23.4205 33.3555C24.1199 33.3555 24.9126 32.7302 29.9485 28.125C35.6527 22.925 35.6838 22.8792 35.5439 23.1384C35.4662 23.2604 34.7357 24.1906 33.9119 25.1971C30.508 29.3602 29.5599 30.7936 29.5599 31.7543C29.5599 32.8217 30.3681 33.2487 31.4561 32.776C32.5752 32.288 36.2899 29.3449 40.0979 25.9138C41.7299 24.4346 41.8387 24.2974 41.8387 23.7637C41.8387 23.0622 41.4657 22.681 40.7818 22.681C40.3777 22.681 39.9269 23.0012 38.0929 24.6634C36.865 25.7461 35.8547 26.6153 35.8081 26.5848C35.777 26.539 36.7562 25.2886 37.9841 23.7942C41.2481 19.8598 43.1754 17.3285 43.3774 16.688C43.6106 16.017 43.3774 15.4223 42.7557 15.0716C42.3827 14.8733 42.2739 14.8733 41.6677 15.1021C41.2947 15.2393 40.4398 15.8035 39.7871 16.3525C39.1187 16.9015 38.5281 17.3437 38.4815 17.3437C38.4348 17.3437 38.6213 17.0845 38.8856 16.7642C41.6056 13.6229 42.5692 12.1742 42.3982 11.4727C42.1651 10.5883 41.3413 10.2985 40.3777 10.7408C39.3052 11.2592 36.2744 13.7296 32.0312 17.5267C31.2074 18.2587 30.4925 18.8686 30.4303 18.8686C30.3681 18.8686 31.7359 17.3742 33.4767 15.5443C40.3932 8.27038 40.6419 7.9349 39.8337 6.95894C39.3829 6.40997 38.6058 6.48621 37.58 7.18768C36.492 7.91965 33.5855 10.2985 29.5133 13.8059C27.7259 15.3461 26.327 16.505 26.3892 16.3983C26.4514 16.2915 27.8968 14.7513 29.5755 12.9977C36.7251 5.49501 37.3313 4.67155 36.321 3.69559C35.5905 2.97888 34.9222 3.23811 32.5597 5.17477C30.7101 6.68445 26.9021 9.9783 24.0889 12.4944C22.2548 14.1414 21.5554 14.6446 22.5812 13.5619C23.6537 12.4639 27.6326 8.10264 29.0159 6.51671C31.0831 4.15307 31.5649 3.5431 31.8292 2.93313C32.2333 1.97242 31.7514 1.17946 30.7878 1.17946C29.9019 1.17946 29.2646 1.68269 22.6745 7.72141C20.5451 9.65807 18.7732 11.244 18.7266 11.244C18.5867 11.244 19.5504 10.2223 23.4827 6.16598C25.5033 4.07683 27.213 2.20116 27.2907 2.00292C27.4772 1.4387 27.1352 0.767727 26.5757 0.584736C26.3115 0.49324 26.0939 0.416992 26.0783 0.432243C26.0628 0.432243 25.8763 0.49324 25.6587 0.569489Z" fill="#E33F40"></path>
<path d="M1.66067 1.62142C1.4897 1.69767 1.20993 1.91116 1.03896 2.09415C0.728104 2.42964 0.728104 2.67363 0.681476 16.825L0.650391 31.2051L1.10113 31.7083L1.55187 32.2115L5.48419 32.2573C7.66018 32.2878 9.58748 32.2573 9.78954 32.2115C10.4112 32.059 10.9086 31.4033 10.9086 30.7323C10.9086 29.2836 10.4268 29.0854 7.05401 29.0854C5.04899 29.0854 4.38065 29.0397 4.24077 28.8872C4.13197 28.7347 4.0698 24.8613 4.03871 15.544L3.99208 2.39914L3.58797 2.00266C3.15278 1.57568 2.20467 1.39268 1.66067 1.62142Z" fill="black"></path>
<path d="M46.2681 1.62086C46.0971 1.6971 45.8174 1.91059 45.6464 2.09358C45.3355 2.42907 45.3355 2.67306 45.2889 16.8244L45.2578 31.2045L45.7086 31.7077L46.1593 32.2109H50.3869H54.6146L55.0653 31.7077C55.5471 31.1892 55.6715 30.4115 55.3606 29.832C55.0031 29.2068 54.4436 29.0848 51.6614 29.0848C49.8429 29.0848 48.9881 29.0238 48.8637 28.9018C48.7238 28.7646 48.6772 25.6385 48.6772 15.757C48.6772 3.05429 48.6772 2.76455 48.3664 2.27658C47.9312 1.57511 47.0763 1.30062 46.2681 1.62086Z" fill="black"></path>
<path d="M61.407 1.74473C61.1894 1.88197 60.9252 2.12596 60.8164 2.27845C60.6454 2.55294 57.4281 29.2545 57.3348 31.1149C57.2882 32.0908 57.568 32.2891 58.9513 32.2891C60.2879 32.2891 60.5522 32.0146 60.6921 30.5201C60.7542 29.9407 60.8941 29.3917 61.0029 29.2697C61.2516 29.0257 65.4015 28.9647 65.6502 29.2087C65.8367 29.3917 66.0699 30.3981 66.0854 31.0081C66.0854 31.2674 66.2253 31.6638 66.4118 31.8926C66.7071 32.2586 66.8315 32.2891 67.8106 32.2891C68.681 32.2891 68.9453 32.2281 69.194 31.9841C69.3649 31.8163 69.5048 31.6333 69.5048 31.5571C69.5048 31.4961 68.7432 24.9542 67.8106 17.0245C66.0388 1.77522 66.0699 2.04971 65.215 1.66848C64.6088 1.37874 61.9044 1.43974 61.407 1.74473ZM63.6763 8.68316C63.7074 8.7899 64.127 12.648 64.6088 17.2533C65.3083 23.9934 65.4326 25.6556 65.2772 25.7471C64.9352 25.9606 61.6402 25.9149 61.4537 25.6861C61.3293 25.5489 61.5314 23.0937 62.1375 17.1923C62.6038 12.6175 63.0079 8.7899 63.0546 8.68316C63.0856 8.59166 63.2255 8.50016 63.3654 8.50016C63.5053 8.50016 63.6452 8.59166 63.6763 8.68316Z" fill="black"></path>
</g>
<defs>
<clipPath id="clip0_1022_5323">
<rect width="70" height="34" fill="white"></rect>
</clipPath>
</defs>
</svg>