<svg width="69" height="33" viewBox="0 0 69 33" fill="none" xmlns="http://www.w3.org/2000/svg">
<path d="M25.0083 0.139801C24.4798 0.292294 23.0654 1.2225 20.7496 2.96092C18.3404 4.76034 18.1539 4.83658 19.6305 3.46415C20.9205 2.25945 21.0915 1.86297 20.5475 1.2225C20.2211 0.810769 19.444 0.749772 18.9311 1.08526C18.2316 1.54274 14.2682 5.38556 12.916 6.92574C11.0353 9.06064 10.2271 10.2501 10.1339 11.043C10.0717 11.6073 10.1183 11.714 10.5069 12.019C11.2996 12.629 12.1389 12.263 15.3096 9.9451C16.2266 9.27413 16.0712 9.48762 14.3615 11.348C12.5275 13.3457 10.1494 16.1211 9.62096 16.8988C9.03033 17.768 9.01479 18.4542 9.57433 18.8812C10.6312 19.6894 12.2632 18.9117 15.7603 15.9076C17.5633 14.3521 17.7654 14.2759 16.6307 15.5263C13.3978 19.1099 12.4808 20.1621 11.6415 21.2296C10.6779 22.4953 10.4758 22.9375 10.6312 23.5475C10.7556 24.0202 11.5327 24.4319 12.1078 24.3099C12.8539 24.1574 15.4029 22.1293 21.0293 17.2343C21.4335 16.8683 21.7599 16.6243 21.7599 16.6853C21.7599 16.731 20.4698 18.134 18.9 19.7809C15.7914 23.0442 13.802 25.2706 13.3512 25.9874C12.916 26.6583 12.9627 27.3445 13.46 27.7258C13.9574 28.107 14.3149 28.1223 14.9677 27.802C15.9469 27.314 19.3663 24.5844 23.625 20.9093C24.6974 19.9944 25.5989 19.2624 25.63 19.2929C25.6611 19.3234 25.2103 19.8571 24.6197 20.4671C24.0291 21.0618 22.5836 22.5868 21.4179 23.8525C16.8173 28.8237 16.2266 29.7844 17.1903 30.7451C18.1539 31.6906 19.0243 31.0806 27.5107 23.5627C32.7486 18.9269 32.733 18.9269 32.4844 19.3082C32.36 19.4759 30.9923 20.9856 29.4535 22.6478C21.2936 31.4314 21.1848 31.5838 21.9153 32.5141C22.164 32.819 22.3816 32.9258 22.7701 32.9258C23.4696 32.9258 24.2622 32.3006 29.2981 27.6953C35.0023 22.4953 35.0334 22.4495 34.8935 22.7088C34.8158 22.8307 34.0853 23.761 33.2615 24.7674C29.8576 28.9305 28.9095 30.3639 28.9095 31.3246C28.9095 32.3921 29.7177 32.819 30.8057 32.3463C31.9248 31.8583 35.6395 28.9152 39.4475 25.4841C41.0795 24.0049 41.1883 23.8677 41.1883 23.334C41.1883 22.6325 40.8153 22.2513 40.1314 22.2513C39.7273 22.2513 39.2765 22.5715 37.4425 24.2337C36.2146 25.3164 35.2043 26.1856 35.1577 26.1551C35.1266 26.1093 36.1058 24.8589 37.3337 23.3645C40.5977 19.4302 42.525 16.8988 42.727 16.2583C42.9602 15.5873 42.727 14.9926 42.1053 14.6419C41.7323 14.4436 41.6235 14.4436 41.0173 14.6724C40.6443 14.8096 39.7895 15.3738 39.1367 15.9228C38.4683 16.4718 37.8777 16.914 37.8311 16.914C37.7844 16.914 37.971 16.6548 38.2352 16.3346C40.9552 13.1932 41.9188 11.7445 41.7478 11.043C41.5147 10.1586 40.6909 9.86885 39.7273 10.3111C38.6548 10.8296 35.624 13.2999 31.3808 17.097C30.5571 17.829 29.8421 18.439 29.7799 18.439C29.7177 18.439 31.0855 16.9445 32.8263 15.1146C39.7428 7.84069 39.9915 7.50521 39.1833 6.52925C38.7326 5.98028 37.9554 6.05653 36.9296 6.75799C35.8416 7.48996 32.9351 9.86885 28.8629 13.3762C27.0755 14.9164 25.6766 16.0753 25.7388 15.9686C25.801 15.8618 27.2464 14.3216 28.9251 12.568C36.0747 5.06532 36.6809 4.24186 35.6706 3.26591C34.9401 2.54919 34.2718 2.80843 31.9093 4.74509C30.0597 6.25477 26.2517 9.54862 23.4385 12.0647C21.6044 13.7117 20.905 14.2149 21.9308 13.1322C23.0033 12.0342 26.9822 7.67295 28.3655 6.08702C30.4327 3.72338 30.9145 3.11341 31.1788 2.50344C31.5829 1.54274 31.1011 0.749771 30.1374 0.749771C29.2515 0.749771 28.6142 1.253 22.0241 7.29172C19.8947 9.22838 18.1228 10.8143 18.0762 10.8143C17.9363 10.8143 18.9 9.7926 22.8323 5.73629C24.8529 3.64714 26.5626 1.77148 26.6403 1.57323C26.8268 1.00901 26.4849 0.33804 25.9253 0.155048C25.6611 0.0635526 25.4435 -0.0126934 25.4279 0.00255585C25.4124 0.00255585 25.2259 0.0635546 25.0083 0.139801Z" fill="#E33F40"></path>
<path d="M1.01028 1.19174C0.839309 1.26798 0.55954 1.48147 0.388569 1.66447C0.0777138 1.99995 0.0777138 2.24394 0.0310855 16.3953L0 30.7754L0.45074 31.2786L0.90148 31.7818L4.8338 31.8276C7.00979 31.8581 8.93709 31.8276 9.13915 31.7818C9.76086 31.6293 10.2582 30.9736 10.2582 30.3026C10.2582 28.854 9.7764 28.6557 6.40362 28.6557C4.3986 28.6557 3.73026 28.61 3.59038 28.4575C3.48158 28.305 3.41941 24.4317 3.38832 15.1143L3.34169 1.96945L2.93758 1.57297C2.50239 1.14599 1.55428 0.962998 1.01028 1.19174Z" fill="white"></path>
<path d="M45.6177 1.19117C45.4467 1.26741 45.167 1.4809 44.996 1.6639C44.6851 1.99938 44.6851 2.24337 44.6385 16.3947L44.6074 30.7748L45.0582 31.278L45.5089 31.7812H49.7365H53.9642L54.4149 31.278C54.8967 30.7595 55.0211 29.9818 54.7102 29.4024C54.3527 28.7771 53.7932 28.6551 51.011 28.6551C49.1925 28.6551 48.3377 28.5941 48.2133 28.4722C48.0735 28.3349 48.0268 25.2088 48.0268 15.3273C48.0268 2.6246 48.0268 2.33486 47.716 1.84689C47.2808 1.14542 46.4259 0.870932 45.6177 1.19117Z" fill="white"></path>
<path d="M60.7566 1.31504C60.539 1.45228 60.2748 1.69627 60.166 1.84876C59.995 2.12325 56.7777 28.8248 56.6844 30.6852C56.6378 31.6611 56.9176 31.8594 58.3009 31.8594C59.6376 31.8594 59.9018 31.5849 60.0417 30.0905C60.1038 29.511 60.2437 28.962 60.3525 28.84C60.6012 28.596 64.7511 28.535 64.9998 28.779C65.1863 28.962 65.4195 29.9685 65.435 30.5784C65.435 30.8377 65.5749 31.2342 65.7614 31.4629C66.0567 31.8289 66.1811 31.8594 67.1603 31.8594C68.0306 31.8594 68.2949 31.7984 68.5436 31.5544C68.7145 31.3866 68.8544 31.2037 68.8544 31.1274C68.8544 31.0664 68.0928 24.5245 67.1603 16.5948C65.3884 1.34554 65.4195 1.62002 64.5646 1.23879C63.9584 0.949056 61.254 1.01005 60.7566 1.31504ZM63.0259 8.25347C63.057 8.36021 63.4766 12.2183 63.9584 16.8236C64.6579 23.5638 64.7822 25.2259 64.6268 25.3174C64.2848 25.5309 60.9898 25.4852 60.8033 25.2564C60.6789 25.1192 60.881 22.6641 61.4871 16.7626C61.9534 12.1878 62.3575 8.36021 62.4042 8.25347C62.4353 8.16197 62.5751 8.07048 62.715 8.07048C62.8549 8.07048 62.9948 8.16197 63.0259 8.25347Z" fill="white"></path>
</svg>